<?xml version="1.0" encoding="UTF-8" standalone="no"?>
<!DOCTYPE svg PUBLIC "-//W3C//DTD SVG 1.1//EN" "http://www.w3.org/Graphics/SVG/1.1/DTD/svg11.dtd">
<svg width="100%" height="100%" viewBox="0 0 512 512" version="1.1" xmlns="http://www.w3.org/2000/svg" xmlns:xlink="http://www.w3.org/1999/xlink" xml:space="preserve" xmlns:serif="http://www.serif.com/" style="fill-rule:evenodd;clip-rule:evenodd;stroke-linejoin:round;stroke-miterlimit:2;">
    <path d="M408.864,79.052C386.463,45.154 342.756,36.779 310.051,55.464C280.577,23.995 230.906,24.371 201.717,55.442C154.557,28.422 93.007,60.497 91.046,116.248C44.846,105.407 0,140.001 0,187.429L0,244.382C0,277.123 14.28,308.336 39.18,330.016L136.89,415.097C141.142,418.799 140,420.67 140,448C140,465.673 154.327,480 172,480L424,480C441.673,480 456,465.673 456,448C456,424.487 454.985,417.255 459.982,405.63L502.817,305.974C508.911,291.797 512,276.802 512,261.406L512,146.963C512,94.124 457.686,58.301 408.864,79.052ZM464,261.406C464.007,270.215 462.209,278.932 458.718,287.019L415.883,386.674C410.653,398.845 408,411.714 408,424.924L408,432L188,432L188,421.714C188,405.344 180.86,389.737 168.41,378.897L70.7,293.817C56.274,281.255 48,263.236 48,244.381L48,187.428C48,154.22 100,153.891 100,188.105L100,229.333C100,233.958 102.005,238.363 105.493,241.4L112.493,247.495C115.405,250.031 119.139,251.428 123,251.428C131.777,251.428 139,244.206 139,235.429L139,118.857C139,85.76 191,85.132 191,119.534L191,146.285C191,155.121 198.164,162.285 207,162.285L214,162.285C222.836,162.285 230,155.121 230,146.285L230,105.142C230,72.008 282,71.467 282,105.819L282,146.285C282,155.121 289.163,162.285 298,162.285L305,162.285C313.837,162.285 321,155.121 321,146.285L321,118.856C321,85.826 373,85.076 373,119.533L373,146.284C373,155.12 380.163,162.284 389,162.284L396,162.284C404.837,162.284 412,155.12 412,146.284C412,113.138 464,112.671 464,146.961L464,261.406Z" style="fill:rgb(229,229,229);fill-rule:nonzero;"/>
</svg>
