<?xml version="1.0" encoding="UTF-8" standalone="no"?>
<!DOCTYPE svg PUBLIC "-//W3C//DTD SVG 1.1//EN" "http://www.w3.org/Graphics/SVG/1.1/DTD/svg11.dtd">
<svg width="100%" height="100%" viewBox="0 0 512 512" version="1.1" xmlns="http://www.w3.org/2000/svg" xmlns:xlink="http://www.w3.org/1999/xlink" xml:space="preserve" xmlns:serif="http://www.serif.com/" style="fill-rule:evenodd;clip-rule:evenodd;stroke-linejoin:round;stroke-miterlimit:2;">
    <path d="M256,480L326,479.987C331.114,479.987 336.231,479.404 341.203,478.258L460.202,450.831C490.56,443.835 512,417.02 512,386.277L512,180.575C512,156.73 498.97,134.624 477.995,122.885L379.996,68.032C345.587,48.771 312.733,62.208 287.778,92.765L142.85,37.008C104.963,22.429 62.238,40.735 47.208,78.209C32.11,115.851 50.843,158.579 89.15,173.321L168,192L74,182.859C33.196,182.859 0,215.67 0,255.999C0,296.329 33.196,329.14 74,329.14L161.635,329.14C157.96,355.385 170.327,380.437 191.976,394.146C178.657,436.737 211.044,480 256,480ZM256,431.987C230.84,431.987 230.88,395.42 256,395.42C264.837,395.42 272,388.257 272,379.42L272,372.564C272,363.727 264.837,356.564 256,356.564L228,356.564C202.841,356.564 202.878,319.997 228,319.997L256,319.997C264.837,319.997 272,312.834 272,303.997L272,297.141C272,288.304 264.837,281.141 256,281.141L74,281.141C39.57,281.141 39.625,230.86 74,230.86L256,230.86C264.837,230.86 272,223.697 272,214.86L272,203.228C272,196.623 267.91,190.667 261.746,188.295L106.389,128.51C74.837,116.37 92.957,69.227 125.611,81.793L292.16,145.884C298.594,148.36 305.938,146.412 310.299,141.072L332.063,114.425C337.883,107.298 348.411,105.361 356.551,109.917L454.551,164.771C460.379,168.034 464,174.089 464,180.576L464,386.277C464,394.768 458.006,402.081 449.424,404.059L330.423,431.486C328.972,431.82 327.489,431.988 326,431.988L256,431.988L256,431.987Z" style="fill:rgb(229,229,229);fill-rule:nonzero;"/>
</svg>
