<?xml version="1.0" encoding="UTF-8" standalone="no"?>
<!DOCTYPE svg PUBLIC "-//W3C//DTD SVG 1.1//EN" "http://www.w3.org/Graphics/SVG/1.1/DTD/svg11.dtd">
<svg width="100%" height="100%" viewBox="0 0 448 512" version="1.1" xmlns="http://www.w3.org/2000/svg" xmlns:xlink="http://www.w3.org/1999/xlink" xml:space="preserve" xmlns:serif="http://www.serif.com/" style="fill-rule:evenodd;clip-rule:evenodd;stroke-linejoin:round;stroke-miterlimit:2;">
    <path d="M372.57,112.641L372.57,101.816C372.57,58.204 332.05,25.125 289.531,36.27C263.902,-13.23 195.441,-11.18 171.549,37.017C130.269,26.456 89.144,57.945 89.144,102L89.144,228.13C69.191,220.703 45.836,223.062 27.061,237.001C-2.294,258.797 -8.733,300.334 12.511,330.154L132.48,498.569C138.479,506.99 148.203,512.001 158.542,512.001L381.439,512.001C396.343,512.001 409.274,501.712 412.621,487.188L442.805,356.23C446.254,341.253 447.997,325.933 448,310.564L448,179C448,138.38 412.477,107.008 372.57,112.641ZM399.997,310.563C399.997,322.294 398.663,334.032 396.032,345.449L368.707,464L166.787,464L51.591,302.303C37.152,282.033 66.614,259.527 80.985,279.698L108.113,317.777C117.108,330.403 137.144,324.064 137.144,308.494L137.144,102C137.144,76.355 173.715,77.19 173.715,102.691L173.715,256C173.715,264.837 180.878,272 189.715,272L196.571,272C205.408,272 212.571,264.837 212.571,256L212.571,67C212.571,41.337 249.142,42.19 249.142,67.691L249.142,256C249.142,264.837 256.305,272 265.142,272L271.998,272C280.835,272 287.998,264.837 287.998,256L287.998,101.125C287.998,75.453 324.568,76.315 324.568,101.816L324.568,256C324.568,264.837 331.731,272 340.568,272L347.425,272C356.262,272 363.425,264.837 363.425,256L363.425,179.691C363.425,153.449 399.995,154.051 399.995,179L399.995,310.563L399.997,310.563Z" style="fill:rgb(229,229,229);fill-rule:nonzero;"/>
</svg>
