<?xml version="1.0" encoding="UTF-8" standalone="no"?>
<!DOCTYPE svg PUBLIC "-//W3C//DTD SVG 1.1//EN" "http://www.w3.org/Graphics/SVG/1.1/DTD/svg11.dtd">
<svg width="100%" height="100%" viewBox="0 0 448 512" version="1.1" xmlns="http://www.w3.org/2000/svg" xmlns:xlink="http://www.w3.org/1999/xlink" xml:space="preserve" xmlns:serif="http://www.serif.com/" style="fill-rule:evenodd;clip-rule:evenodd;stroke-linejoin:round;stroke-miterlimit:2;">
    <path d="M224,256C294.7,256 352,198.7 352,128C352,57.3 294.7,0 224,0C153.3,0 96,57.3 96,128C96,198.7 153.3,256 224,256ZM313.6,288L296.9,288C274.7,298.2 250,304 224,304C198,304 173.4,298.2 151.1,288L134.4,288C60.2,288 0,348.2 0,422.4L0,464C0,490.5 21.5,512 48,512L400,512C426.5,512 448,490.5 448,464L448,422.4C448,348.2 387.8,288 313.6,288Z" style="fill:rgb(229,229,229);fill-rule:nonzero;"/>
</svg>
